
        <svg xmlns="http://www.w3.org/2000/svg" xmlns:xlink="http://www.w3.org/1999/xlink" version="1.1" width="3300" 
        height="1976.7674922959498" viewBox="0 0 3300 1976.7674922959498">
			<rect fill="#000000" width="3300" height="1976.7674922959498"/>
			<g transform="scale(15) translate(10, 10)">
				<defs id="SvgjsDefs1324"><linearGradient id="SvgjsLinearGradient1327"><stop id="SvgjsStop1328" stop-color="#8f5e25" offset="0"></stop><stop id="SvgjsStop1329" stop-color="#fbf4a1" offset="0.5"></stop><stop id="SvgjsStop1330" stop-color="#8f5e25" offset="1"></stop></linearGradient></defs><g id="SvgjsG1325" featureKey="ujU5uU-0" transform="matrix(8.417508125305176,0,0,8.417508125305176,-5.38720478243544,-56.56565372762999)" fill="url(#SvgjsLinearGradient1327)"><path d="M0.64 20 l0 -0.3 l1.72 0 l0 -12.62 l-1.72 0 l0 -0.3 l10.24 0 s-0.42 1.58 -0.58 3.74 l-0.3 0 l0 -1.98 c0 -1.16 -0.28 -1.46 -1.12 -1.46 l-4.08 0 l0 6.24 l3.12 0 l0 -1.76 l0.3 0 l0 4 l-0.3 0 l0 -1.94 l-3.12 0 l0 6.08 l4.06 0 c1.18 0 1.4 -1.24 1.76 -3.66 l0.32 0 s-0.3 1.82 -0.3 3.96 l-10 0 z M11.36 20 l0 -0.3 l0.4 0 c0.62 0 0.96 -0.3 1.3 -1.18 l4.52 -11.8 l0.54 0 l5.3 12.98 l0.98 0 l0 0.3 l-4.94 0 l0 -0.3 l1.4 0 l-1.78 -4.34 l-4.5 0 l-1.2 3.16 c-0.28 0.72 0.16 1.18 1.08 1.18 l0.6 0 l0 0.3 l-3.7 0 z M14.7 15.059999999999999 l4.26 0 l-2.2 -5.38 z"></path></g>
			</g>
		</svg>
	